<?xml version="1.0" encoding="UTF-8"?><svg xmlns="http://www.w3.org/2000/svg" width="100%" height="100%"><line x1="100" y1="100" x2="100" y2="600" stroke="blue" stroke-width="2"/><line x1="100" y1="600" x2="1000" y2="600" stroke="blue" stroke-width="2"/><text stroke="blue" x="120" y="620">CASABLANCA</text><rect width="20" height="280" x="120" y="320" stroke="blue" fill="orange"><animate attributeName="height" dur="3s" from="0" to="280"/><animate attributeName="y" dur="3s" from="600" to="320"/></rect><text x="120" y="310">28</text><text stroke="blue" x="240" y="620">MARRAKECH</text><rect width="20" height="400" x="240" y="200" stroke="blue" fill="orange"><animate attributeName="height" dur="3s" from="0" to="400"/><animate attributeName="y" dur="3s" from="600" to="200"/></rect><text x="240" y="190">40</text><text stroke="blue" x="360" y="620">TANGER</text><rect width="20" height="300" x="360" y="300" stroke="blue" fill="orange"><animate attributeName="height" dur="3s" from="0" to="300"/><animate attributeName="y" dur="3s" from="600" to="300"/></rect><text x="360" y="290">30</text><text stroke="blue" x="480" y="620">RABAT</text><rect width="20" height="290" x="480" y="310" stroke="blue" fill="orange"><animate attributeName="height" dur="3s" from="0" to="290"/><animate attributeName="y" dur="3s" from="600" to="310"/></rect><text x="480" y="300">29</text><text stroke="blue" x="600" y="620">MEDIA</text><rect width="20" height="300" x="600" y="300" stroke="blue" fill="orange"><animate attributeName="height" dur="3s" from="0" to="300"/><animate attributeName="y" dur="3s" from="600" to="300"/></rect><text x="600" y="290">30</text><text stroke="blue" x="720" y="620">OUEJDA</text><rect width="20" height="400" x="720" y="200" stroke="blue" fill="orange"><animate attributeName="height" dur="3s" from="0" to="400"/><animate attributeName="y" dur="3s" from="600" to="200"/></rect><text x="720" y="190">40</text><text stroke="blue" x="840" y="620">DAKHLA</text><rect width="20" height="500" x="840" y="100" stroke="blue" fill="orange"><animate attributeName="height" dur="3s" from="0" to="500"/><animate attributeName="y" dur="3s" from="600" to="100"/></rect><text x="840" y="90">50</text><text stroke="blue" x="960" y="620">TETOUAN</text><rect width="20" height="300" x="960" y="300" stroke="blue" fill="orange"><animate attributeName="height" dur="3s" from="0" to="300"/><animate attributeName="y" dur="3s" from="600" to="300"/></rect><text x="960" y="290">30</text><text stroke="blue" x="1080" y="620">EL JADIDA</text><rect width="20" height="290" x="1080" y="310" stroke="blue" fill="orange"><animate attributeName="height" dur="3s" from="0" to="290"/><animate attributeName="y" dur="3s" from="600" to="310"/></rect><text x="1080" y="300">29</text></svg>